<?xml version="1.0" standalone="no"?>
<!DOCTYPE svg PUBLIC "-//W3C//DTD SVG 20010904//EN"
 "http://www.w3.org/TR/2001/REC-SVG-20010904/DTD/svg10.dtd">
<svg version="1.0" xmlns="http://www.w3.org/2000/svg"
 width="512.000000pt" height="512.000000pt" viewBox="0 0 512.000000 512.000000"
 preserveAspectRatio="xMidYMid meet">
<metadata>
Created by potrace 1.14, written by Peter Selinger 2001-2017
</metadata>
<g transform="translate(0.000000,512.000000) scale(0.100000,-0.100000)"
fill="#000000" stroke="none">
<path d="M2733 5037 c-143 -170 -254 -349 -346 -559 l-26 -57 72 -212 72 -212
372 -126 c205 -69 375 -123 378 -120 4 5 -290 897 -315 954 -4 11 -37 109 -73
217 l-65 198 -69 -83z"/>
<path d="M4708 4915 c-2 -2 -46 -6 -98 -10 -52 -4 -101 -8 -110 -10 -8 -1 -55
-6 -103 -10 -48 -3 -96 -8 -105 -10 -9 -1 -57 -6 -107 -10 -49 -3 -106 -8
-125 -10 -19 -3 -66 -7 -105 -10 -38 -3 -92 -7 -120 -10 -68 -7 -126 -13 -215
-21 -41 -4 -88 -8 -105 -10 -16 -1 -70 -6 -118 -9 -48 -4 -95 -8 -105 -10 -9
-2 -27 -4 -39 -4 -20 -1 -9 -37 173 -577 106 -318 195 -578 197 -580 2 -2 263
-91 580 -198 l577 -194 1 26 c1 15 3 36 4 47 3 21 15 149 30 315 3 36 8 85 10
110 3 25 7 74 10 110 3 36 7 85 10 110 4 41 18 197 30 340 2 30 7 75 9 100 3
25 7 72 10 105 3 33 9 92 13 130 13 126 9 193 -13 222 -36 48 -69 66 -128 68
-30 2 -56 1 -58 0z"/>
<path d="M1894 4738 c-161 -181 -294 -371 -402 -579 -63 -120 -152 -333 -152
-364 0 -28 140 -439 153 -447 6 -3 60 -23 121 -43 61 -20 120 -40 131 -45 47
-20 775 -258 775 -253 0 5 -86 265 -97 293 -3 8 -7 20 -9 25 -7 29 -483 1438
-487 1441 -2 2 -17 -11 -33 -28z"/>
<path d="M787 4150 c-183 -208 -388 -512 -479 -710 -26 -55 -88 -193 -97 -215
-62 -143 -136 -405 -174 -619 -2 -9 1542 -531 1550 -523 2 3 -56 187 -131 409
-74 222 -237 704 -360 1072 -124 367 -226 669 -228 671 -2 2 -38 -37 -81 -85z"/>
<path d="M2630 3632 c0 -18 244 -738 254 -748 10 -10 729 -254 748 -254 4 0
-50 170 -120 377 l-127 378 -378 127 c-207 69 -377 124 -377 120z"/>
<path d="M3869 2883 l127 -378 212 -71 212 -72 93 41 c50 22 112 52 137 66 25
15 58 33 74 41 39 20 222 146 276 190 80 66 115 99 110 103 -6 5 -1353 457
-1362 457 -3 0 51 -170 121 -377z"/>
<path d="M1610 2983 c0 -9 78 -249 90 -278 5 -11 63 -185 131 -386 l122 -366
514 -173 c283 -95 516 -171 518 -169 2 3 -74 236 -169 518 l-173 514 -514 173
c-590 199 -519 176 -519 167z"/>
<path d="M3010 2493 c13 -44 327 -976 335 -994 4 -10 84 -42 224 -89 l219 -73
58 18 c33 10 66 22 74 26 8 4 44 19 80 34 105 45 267 132 375 202 186 122 405
302 382 314 -7 4 -183 64 -392 134 -946 318 -1356 455 -1360 455 -2 0 0 -12 5
-27z"/>
<path d="M5 2128 c4 -201 7 -228 49 -458 15 -84 54 -219 93 -320 79 -207 177
-381 315 -558 39 -50 47 -66 38 -77 -7 -8 -114 -117 -240 -242 -125 -125 -235
-242 -244 -260 -44 -86 13 -191 113 -210 70 -12 83 -3 344 258 137 137 252
249 255 249 2 0 33 -23 69 -50 193 -152 434 -278 673 -352 111 -35 282 -73
360 -82 30 -3 66 -8 80 -11 32 -7 380 -17 380 -11 0 4 -86 263 -435 1301
l-138 411 -351 118 c-525 177 -1358 456 -1362 456 -1 0 -1 -73 1 -162z"/>
<path d="M2080 1588 c0 -13 510 -1539 517 -1547 8 -11 263 46 403 90 301 94
701 297 912 463 14 12 41 32 59 46 68 51 145 115 190 157 26 24 54 50 64 57
15 11 11 15 -41 33 -59 21 -1188 400 -1764 592 -168 56 -313 106 -322 112 -13
6 -18 6 -18 -3z"/>
</g>
</svg>
